<svg xmlns="http://www.w3.org/2000/svg" width="128" height="128" viewBox="0 0 128 128" fill="none">
<rect width="128" height="128" fill="white"/>
<mask id="path-2-outside-1_66_2" maskUnits="userSpaceOnUse" x="35.5459" y="33.953" width="61" height="60" fill="black">
<rect fill="white" x="35.5459" y="33.953" width="61" height="60"/>
<path d="M94.5926 35.7101L74.6432 91.953H57.498L37.5486 35.7101H52.1301L66.0706 78.1727L80.0913 35.7101H94.5926Z"/>
</mask>
<path d="M94.5926 35.7101L74.6432 91.953H57.498L37.5486 35.7101H52.1301L66.0706 78.1727L80.0913 35.7101H94.5926Z" fill="#4CAF50"/>
<path d="M94.5926 35.7101L95.7252 36.1119L96.294 34.5084H94.5926V35.7101ZM74.6432 91.953V93.1547H75.4921L75.7759 92.3547L74.6432 91.953ZM57.498 91.953L56.3654 92.3547L56.6491 93.1547H57.498V91.953ZM37.5486 35.7101V34.5084H35.8472L36.416 36.1119L37.5486 35.7101ZM52.1301 35.7101L53.2719 35.3353L53.0004 34.5084H52.1301V35.7101ZM66.0706 78.1727L64.9288 78.5475L66.0673 82.0155L67.2118 78.5495L66.0706 78.1727ZM80.0913 35.7101V34.5084H79.2225L78.9501 35.3333L80.0913 35.7101ZM93.46 35.3084L73.5106 91.5512L75.7759 92.3547L95.7252 36.1119L93.46 35.3084ZM74.6432 90.7512H57.498V93.1547H74.6432V90.7512ZM58.6306 91.5512L38.6813 35.3084L36.416 36.1119L56.3654 92.3547L58.6306 91.5512ZM37.5486 36.9119H52.1301V34.5084H37.5486V36.9119ZM50.9883 36.085L64.9288 78.5475L67.2124 77.7978L53.2719 35.3353L50.9883 36.085ZM67.2118 78.5495L81.2324 36.087L78.9501 35.3333L64.9294 77.7959L67.2118 78.5495ZM80.0913 36.9119H94.5926V34.5084H80.0913V36.9119Z" fill="white" mask="url(#path-2-outside-1_66_2)"/>
<line x1="67.0731" y1="71.8451" x2="80.7933" y2="74.1485" stroke="white" stroke-width="1.00147"/>
<line x1="66.4568" y1="76.4588" x2="80.177" y2="78.7622" stroke="white" stroke-width="2.00295"/>
<mask id="path-6-outside-2_66_2" maskUnits="userSpaceOnUse" x="79.6035" y="33.953" width="35" height="60" fill="black">
<rect fill="white" x="79.6035" y="33.953" width="35" height="60"/>
<path d="M95.1583 81.3774H113.105V91.953H81.4582V35.7101H95.1583V81.3774Z"/>
</mask>
<path d="M95.1583 81.3774H113.105V91.953H81.4582V35.7101H95.1583V81.3774Z" fill="#2A5C8A"/>
<path d="M95.1583 81.3774H93.9566V82.5792H95.1583V81.3774ZM113.105 81.3774H114.307V80.1756H113.105V81.3774ZM113.105 91.953V93.1547H114.307V91.953H113.105ZM81.4582 91.953H80.2564V93.1547H81.4582V91.953ZM81.4582 35.7101V34.5084H80.2564V35.7101H81.4582ZM95.1583 35.7101H96.3601V34.5084H95.1583V35.7101ZM95.1583 82.5792H113.105V80.1756H95.1583V82.5792ZM111.903 81.3774V91.953H114.307V81.3774H111.903ZM113.105 90.7512H81.4582V93.1547H113.105V90.7512ZM82.6599 91.953V35.7101H80.2564V91.953H82.6599ZM81.4582 36.9119H95.1583V34.5084H81.4582V36.9119ZM93.9566 35.7101V81.3774H96.3601V35.7101H93.9566Z" fill="white" mask="url(#path-6-outside-2_66_2)"/>
<line x1="95.6318" y1="77.847" x2="90.6245" y2="77.847" stroke="white" stroke-width="1.00147"/>
<line x1="95.6318" y1="39.791" x2="90.6245" y2="39.791" stroke="white" stroke-width="1.00147"/>
<line x1="95.6318" y1="47.4022" x2="90.6245" y2="47.4022" stroke="white" stroke-width="1.00147"/>
<line x1="95.6318" y1="55.0134" x2="90.6245" y2="55.0134" stroke="white" stroke-width="1.00147"/>
<line x1="95.6318" y1="62.6246" x2="90.6245" y2="62.6246" stroke="white" stroke-width="1.00147"/>
<line x1="95.6318" y1="70.2358" x2="90.6245" y2="70.2358" stroke="white" stroke-width="1.00147"/>
<mask id="path-14-outside-3_66_2" maskUnits="userSpaceOnUse" x="12.5127" y="33.953" width="61" height="60" fill="black">
<rect fill="white" x="12.5127" y="33.953" width="61" height="60"/>
<path d="M53.4994 82.0183H32.5085L29.1435 91.953H14.8024L35.1524 35.7101H51.0157L71.3657 91.953H56.8643L53.4994 82.0183ZM49.9742 71.4428L43.0039 50.8524L36.1138 71.4428H49.9742Z"/>
</mask>
<path d="M53.4994 82.0183H32.5085L29.1435 91.953H14.8024L35.1524 35.7101H51.0157L71.3657 91.953H56.8643L53.4994 82.0183ZM49.9742 71.4428L43.0039 50.8524L36.1138 71.4428H49.9742Z" fill="#FF6B35"/>
<path d="M53.4994 82.0183L54.6376 81.6328L54.3612 80.8166H53.4994V82.0183ZM32.5085 82.0183V80.8166H31.6467L31.3702 81.6328L32.5085 82.0183ZM29.1435 91.953V93.1547H30.0053L30.2818 92.3385L29.1435 91.953ZM14.8024 91.953L13.6723 91.5441L13.0896 93.1547H14.8024V91.953ZM35.1524 35.7101V34.5084H34.3092L34.0223 35.3013L35.1524 35.7101ZM51.0157 35.7101L52.1458 35.3013L51.8589 34.5084H51.0157V35.7101ZM71.3657 91.953V93.1547H73.0785L72.4958 91.5441L71.3657 91.953ZM56.8643 91.953L55.7261 92.3385L56.0026 93.1547H56.8643V91.953ZM49.9742 71.4428V72.6445H51.6498L51.1125 71.0574L49.9742 71.4428ZM43.0039 50.8524L44.1422 50.4671L42.9973 47.085L41.8643 50.4711L43.0039 50.8524ZM36.1138 71.4428L34.9741 71.0614L34.4444 72.6445H36.1138V71.4428ZM53.4994 80.8166H32.5085V83.2201H53.4994V80.8166ZM31.3702 81.6328L28.0053 91.5674L30.2818 92.3385L33.6467 82.4039L31.3702 81.6328ZM29.1435 90.7512H14.8024V93.1547H29.1435V90.7512ZM15.9325 92.3618L36.2824 36.119L34.0223 35.3013L13.6723 91.5441L15.9325 92.3618ZM35.1524 36.9119H51.0157V34.5084H35.1524V36.9119ZM49.8857 36.119L70.2356 92.3618L72.4958 91.5441L52.1458 35.3013L49.8857 36.119ZM71.3657 90.7512H56.8643V93.1547H71.3657V90.7512ZM58.0026 91.5674L54.6376 81.6328L52.3611 82.4039L55.7261 92.3385L58.0026 91.5674ZM51.1125 71.0574L44.1422 50.4671L41.8656 51.2378L48.8359 71.8281L51.1125 71.0574ZM41.8643 50.4711L34.9741 71.0614L37.2534 71.8241L44.1436 51.2338L41.8643 50.4711ZM36.1138 72.6445H49.9742V70.241H36.1138V72.6445Z" fill="white" mask="url(#path-14-outside-3_66_2)"/>
<circle cx="43.0553" cy="43.0959" r="8.51253" fill="white" stroke="#FF6B35" stroke-width="5.00737"/>
<line x1="44.3087" y1="33.5818" x2="44.3087" y2="23.5671" stroke="#FF6B35" stroke-width="2.50369"/>
<line x1="41.8048" y1="33.5818" x2="41.8048" y2="23.5671" stroke="#FF6B35" stroke-width="2.50369"/>
</svg>